{
    "asset": {
        "version": "2.0",
        "generator": "Open Asset Import Library (assimp v3.1.13472455)"
    },
    "accessors": [
        {
            "bufferView": 0,
            "byteOffset": 0,
            "componentType": 5126,
            "count": 1014,
            "type": "VEC3",
            "max": [
                100.00000762939453,
                2.499999761581421,
                138.46633911132813
            ],
            "min": [
                -99.99999237060547,
                -2.499999761581421,
                -61.53364181518555
            ]
        },
        {
            "bufferView": 1,
            "byteOffset": 0,
            "componentType": 5126,
            "count": 1014,
            "type": "VEC3",
            "max": [
                1.0,
                1.0,
                1.0
            ],
            "min": [
                -1.0,
                -1.0,
                -1.0
            ]
        },
        {
            "bufferView": 2,
            "byteOffset": 0,
            "componentType": 5126,
            "count": 1014,
            "type": "VEC4",
            "max": [
                1.0,
                1.0,
                1.0,
                1.0
            ],
            "min": [
                -1.0,
                -1.0,
                -1.0,
                -1.0
            ]
        },
        {
            "bufferView": 3,
            "byteOffset": 0,
            "componentType": 5126,
            "count": 1014,
            "type": "VEC2",
            "max": [
                0.9950479865074158,
                1.0
            ],
            "min": [
                0.0,
                0.27864497900009158
            ]
        },
        {
            "bufferView": 4,
            "byteOffset": 0,
            "componentType": 5123,
            "count": 5184,
            "type": "SCALAR",
            "max": [
                1013.0
            ],
            "min": [
                0.0
            ]
        }
    ],
    "buffers": [
        {
            "byteLength": 59040,
            "uri": "FloorTile.bin"
        }
    ],
    "bufferViews": [
        {
            "buffer": 0,
            "byteOffset": 0,
            "byteLength": 12168,
            "target": 34962
        },
        {
            "buffer": 0,
            "byteOffset": 12168,
            "byteLength": 12168,
            "target": 34962
        },
        {
            "buffer": 0,
            "byteOffset": 24336,
            "byteLength": 16224,
            "target": 34962
        },
        {
            "buffer": 0,
            "byteOffset": 40560,
            "byteLength": 8112,
            "target": 34962
        },
        {
            "buffer": 0,
            "byteOffset": 48672,
            "byteLength": 10368,
            "target": 34963
        }
    ],
    "materials": [
        {
            "name": "DefaultMaterial",
            "pbrMetallicRoughness": {
                "baseColorFactor": [
                    0.6000000238418579,
                    0.6000000238418579,
                    0.6000000238418579,
                    1.0
                ],
                "metallicFactor": 0.0
            }
        }
    ],
    "meshes": [
        {
            "name": "RoadKillOut",
            "primitives": [
                {
                    "mode": 4,
                    "material": 0,
                    "indices": 4,
                    "attributes": {
                        "POSITION": 0,
                        "NORMAL": 1,
                        "TANGENT": 2,
                        "TEXCOORD_0": 3
                    }
                }
            ]
        }
    ],
    "nodes": [
        {
            "name": "FloorTile.obj",
            "matrix": [
                0.009999999776482582,
                0.0,
                0.0,
                0.0,
                0.0,
                0.009999999776482582,
                0.0,
                0.0,
                0.0,
                0.0,
                0.009999999776482582,
                0.0,
                0.0,
                0.0,
                0.0,
                1.0
            ],
            "children": [
                1,
                2
            ]
        },
        {
            "name": "RoadKillOut"
        },
        {
            "name": "RoadKillOut_node",
            "mesh": 0
        }
    ],
    "scenes": [
        {
            "nodes": [
                0
            ]
        }
    ],
    "scene": 0
}